<svg width="28" height="13" viewBox="0 0 28 13" fill="none" xmlns="http://www.w3.org/2000/svg">
<path opacity="0.2" d="M2.93945 0.5H22.6055C23.8021 0.5 24.7725 1.47038 24.7725 2.66699V10.333C24.7725 11.5296 23.8021 12.5 22.6055 12.5H2.93945C1.74284 12.5 0.772461 11.5296 0.772461 10.333V2.66699L0.783203 2.44531C0.894058 1.35265 1.81755 0.5 2.93945 0.5Z" stroke="#021433"/>
<path opacity="0.2" d="M25.9224 4V8C26.7271 7.66122 27.2504 6.87313 27.2504 6C27.2504 5.12687 26.7271 4.33878 25.9224 4Z" fill="#021433"/>
<path d="M2.57251 3.66634C2.57251 2.92996 3.16946 2.33301 3.90584 2.33301H21.4391C22.1755 2.33301 22.7725 2.92996 22.7725 3.66634V9.32967C22.7725 10.0661 22.1755 10.663 21.4391 10.663H3.90584C3.16946 10.663 2.57251 10.0661 2.57251 9.32967V3.66634Z" fill="#021433"/>
</svg>
