<svg width="33" height="32" viewBox="0 0 33 32" fill="none" xmlns="http://www.w3.org/2000/svg">
<path d="M20.6424 0.843087L17.4853 0L14.8248 9.89565L12.4228 0.961791L9.26555 1.80488L11.8608 11.4573L5.3967 5.01518L3.08549 7.31854L10.1758 14.3848L1.34596 12.0269L0.5 15.1733L10.1477 17.7496C10.0372 17.2748 9.97877 16.7801 9.97877 16.2717C9.97877 12.6737 12.9055 9.75685 16.5159 9.75685C20.1262 9.75685 23.0529 12.6737 23.0529 16.2717C23.0529 16.7768 22.9952 17.2685 22.8861 17.7405L31.6541 20.0818L32.5 16.9354L22.814 14.3489L31.6444 11.9908L30.7984 8.84437L21.1128 11.4308L27.5768 4.98873L25.2656 2.68538L18.2737 9.65357L20.6424 0.843087Z" fill="#367AFF"/>
<path d="M22.8777 17.7771C22.607 18.9176 22.0356 19.9421 21.2515 20.763L27.6034 27.0935L29.9147 24.7901L22.8777 17.7771Z" fill="#367AFF"/>
<path d="M21.1872 20.8292C20.3936 21.637 19.3907 22.2398 18.2661 22.5504L20.5775 31.1472L23.7346 30.3041L21.1872 20.8292Z" fill="#367AFF"/>
<path d="M18.1481 22.5818C17.6263 22.7155 17.0794 22.7866 16.5158 22.7866C15.912 22.7866 15.3273 22.705 14.7722 22.5522L12.4587 31.1569L15.6159 31.9999L18.1481 22.5818Z" fill="#367AFF"/>
<path d="M14.6608 22.5206C13.5533 22.1945 12.5683 21.584 11.791 20.7739L5.42334 27.1199L7.73454 29.4233L14.6608 22.5206Z" fill="#367AFF"/>
<path d="M11.7377 20.7178C10.9737 19.9026 10.4172 18.8917 10.1523 17.7688L1.35571 20.1178L2.20167 23.2642L11.7377 20.7178Z" fill="#367AFF"/>
</svg>
