<svg width="18" height="11" viewBox="0 0 18 11" fill="none" xmlns="http://www.w3.org/2000/svg">
<path d="M2 6.5C2.55228 6.5 3 6.94772 3 7.5V9.5C3 10.0523 2.55228 10.5 2 10.5H1C0.447715 10.5 0 10.0523 0 9.5V7.5C0 6.94772 0.447715 6.5 1 6.5H2ZM7 4.5C7.55228 4.5 8 4.94772 8 5.5V9.5C8 10.0523 7.55228 10.5 7 10.5H6C5.44772 10.5 5 10.0523 5 9.5V5.5C5 4.94772 5.44772 4.5 6 4.5H7ZM12 2.5C12.5523 2.5 13 2.92979 13 3.45996V9.54004C13 10.0702 12.5523 10.5 12 10.5H11C10.4478 10.4999 10 10.0702 10 9.54004V3.45996C10 2.92982 10.4478 2.50006 11 2.5H12ZM17 0.5C17.5523 0.5 18 0.919733 18 1.4375V9.5625C18 10.0803 17.5523 10.5 17 10.5H16C15.4477 10.5 15 10.0803 15 9.5625V1.4375C15 0.919733 15.4477 0.5 16 0.5H17Z" fill="#021433"/>
</svg>
