<svg width="16" height="11" viewBox="0 0 16 11" fill="none" xmlns="http://www.w3.org/2000/svg">
<path d="M5.42676 8.41772C6.70233 7.33884 8.57111 7.33884 9.84668 8.41772C9.91059 8.47574 9.94746 8.55797 9.94922 8.64429C9.95085 8.73062 9.91711 8.81426 9.85547 8.87476L7.8584 10.8904C7.79989 10.9495 7.7199 10.9821 7.63672 10.9822C7.55355 10.9822 7.47357 10.9495 7.41504 10.8904L5.41699 8.87476C5.35528 8.81411 5.32141 8.72982 5.32324 8.64331C5.32518 8.55709 5.36282 8.4756 5.42676 8.41772ZM2.76172 5.72827C5.50984 3.1722 9.76555 3.1722 12.5137 5.72827C12.5756 5.78815 12.6113 5.87063 12.6123 5.95679C12.6132 6.04297 12.5793 6.12608 12.5186 6.18726L11.3643 7.35425C11.2453 7.47332 11.0527 7.47592 10.9307 7.36011C10.0282 6.54294 8.85414 6.09055 7.63672 6.09058C6.42003 6.09108 5.2466 6.54344 4.34473 7.36011C4.22265 7.47592 4.03006 7.47332 3.91113 7.35425L2.75684 6.18726C2.69611 6.12618 2.66227 6.04292 2.66309 5.95679C2.664 5.87063 2.69973 5.78813 2.76172 5.72827ZM0.0966797 3.04663C4.3118 -0.992539 10.9618 -0.992791 15.1768 3.04663C15.2377 3.10657 15.2719 3.18872 15.2725 3.27417C15.273 3.35973 15.239 3.44197 15.1787 3.50269L14.0225 4.66968C13.9033 4.78915 13.7107 4.7904 13.5898 4.67261C11.9839 3.14588 9.85254 2.2948 7.63672 2.29468C5.42062 2.29467 3.28877 3.14572 1.68262 4.67261C1.56183 4.7906 1.36905 4.78938 1.25 4.66968L0.09375 3.50269C0.0334857 3.44192 -0.000563029 3.35975 0 3.27417C0.00061592 3.18866 0.0356689 3.10655 0.0966797 3.04663Z" fill="#021433"/>
</svg>
